<svg version="1.1" id="Layer_1" xmlns="http://www.w3.org/2000/svg" xmlns:xlink="http://www.w3.org/1999/xlink" x="0px" y="0px"
	 width="100%" viewBox="0 0 512 512" enable-background="new 0 0 512 512" xml:space="preserve">
<path fill="#010100" opacity="1.000000" stroke="none" 
	d="
M333.000000,513.000000 
	C222.026962,513.000000 111.553917,513.000000 1.040437,513.000000 
	C1.040437,342.401947 1.040437,171.803864 1.040437,1.102891 
	C171.556381,1.102891 342.112854,1.102891 512.834656,1.102891 
	C512.834656,171.666534 512.834656,342.333252 512.834656,513.000000 
	C453.137177,513.000000 393.318573,513.000000 333.000000,513.000000 
M147.700256,326.202393 
	C139.551697,333.330841 131.138428,340.181915 123.313240,347.649261 
	C109.716904,360.623840 96.303482,373.803955 83.213997,387.286865 
	C79.524597,391.087128 77.230927,396.242432 74.351730,400.691864 
	C80.909508,402.844299 86.682846,404.350250 92.100586,406.682281 
	C94.793839,407.841553 96.484779,407.869934 98.730705,406.098328 
	C115.194069,393.111816 131.935059,380.468628 148.176147,367.211975 
	C158.970383,358.401276 169.084030,348.756805 179.694122,339.314911 
	C181.513138,341.262573 183.214722,343.075348 184.905914,344.897766 
	C186.682587,346.812347 188.449310,348.736115 190.291245,350.732666 
	C189.570328,351.525269 189.166382,352.040192 188.692688,352.479980 
	C163.164566,376.179962 136.874283,398.955902 108.296028,418.973206 
	C106.938568,419.924011 105.255707,421.413757 105.056236,422.838959 
	C104.233902,428.714447 103.925804,434.661957 103.394836,440.985992 
	C106.917496,440.732452 110.712959,440.497253 114.501648,440.180908 
	C174.479980,435.173218 227.072723,412.602692 272.686401,373.527771 
	C274.110321,372.307922 275.512726,370.508789 275.921692,368.746765 
	C278.958313,355.664154 282.607056,342.637756 284.371857,329.368683 
	C286.337006,314.592804 284.946350,299.761444 279.121033,285.718353 
	C273.422089,271.979828 263.303741,264.744843 248.180176,264.986328 
	C243.235596,265.065277 238.288696,264.998688 232.977997,264.998688 
	C232.977997,258.713104 233.145355,252.911880 232.943741,247.123520 
	C232.501022,234.412415 230.806808,221.930084 225.228470,210.281723 
	C216.487396,192.029175 198.843170,187.382706 182.804733,199.790833 
	C176.706131,204.508957 171.233704,210.419876 166.672867,216.661789 
	C157.409027,229.340149 148.960342,242.614105 140.175690,255.642593 
	C142.227097,255.462769 143.653442,254.554718 144.883148,253.431366 
	C153.123245,245.904175 161.231964,238.230499 169.570770,230.815170 
	C173.787842,227.065155 178.100769,223.272888 182.885818,220.341019 
	C195.095749,212.859833 209.343292,217.952301 214.218597,231.407852 
	C217.996658,241.835159 218.177841,251.363541 210.698181,261.259033 
	C192.473785,285.369690 170.676865,305.821045 147.700256,326.202393 
M343.122253,223.325745 
	C351.493561,230.806259 359.864868,238.286789 368.058350,245.608398 
	C367.771851,246.237122 367.981110,245.831650 368.145752,245.408813 
	C386.014160,199.519073 389.529968,152.232574 380.693542,104.090973 
	C376.535339,81.436905 367.845764,60.386395 351.915161,43.058548 
	C343.482910,33.886749 333.460175,27.365314 320.874634,25.365622 
	C310.721008,23.752329 304.999084,26.552666 302.233795,36.487091 
	C299.979919,44.584118 298.443268,53.118446 298.239807,61.498959 
	C297.819702,78.803886 298.177490,96.147285 298.806244,113.453392 
	C299.704712,138.182373 298.185822,162.444397 286.580231,184.924728 
	C281.516418,194.733444 275.722137,204.165039 270.212128,213.851364 
	C295.711853,204.691925 319.732147,208.961365 343.122253,223.325745 
M354.896210,382.349426 
	C355.120880,381.724243 355.343414,381.098267 355.570526,380.473999 
	C366.237122,351.153625 372.233765,321.281464 367.055267,289.909027 
	C361.246368,254.717239 337.572937,230.442017 303.543030,225.439041 
	C295.369843,224.237442 287.317810,225.102798 278.573853,228.387466 
	C301.987823,234.588867 318.837494,247.238434 328.504517,268.603577 
	C334.004333,280.758728 336.237915,293.666534 336.872559,306.885773 
	C337.813873,326.491882 333.426758,345.253418 327.375488,363.679108 
	C313.545197,405.791321 292.963715,444.684540 270.335388,482.587494 
	C269.377228,484.192444 268.516510,485.855591 267.200134,488.232300 
	C279.537140,484.576721 288.982880,477.894592 297.578003,469.973389 
	C323.828400,445.781067 341.427490,415.862732 354.896210,382.349426 
M420.655029,291.848785 
	C409.535095,280.554443 395.814667,275.263733 381.122864,273.839508 
	C382.438629,286.759064 383.903839,299.266113 384.857819,311.812012 
	C385.101624,315.018066 385.893036,316.756958 388.722778,318.415863 
	C406.198242,328.660522 418.668365,343.268982 422.302399,363.380737 
	C424.555939,375.852631 423.977356,388.846497 424.533813,401.612000 
	C425.105591,414.729156 424.951813,427.905731 426.168274,440.958221 
	C427.133575,451.315674 430.759979,461.163849 435.738495,470.408783 
	C435.986664,469.183167 436.027130,468.020966 435.827576,466.901611 
	C432.399139,447.671509 433.388672,428.481232 435.561462,409.178101 
	C437.830383,389.020782 440.316864,368.780151 440.646271,348.542389 
	C440.982483,327.885651 435.811920,308.246521 420.655029,291.848785 
M305.955627,376.466614 
	C310.165833,362.651154 315.170807,349.018250 318.396698,334.976654 
	C323.030518,314.806580 322.403534,294.552917 314.087036,275.219421 
	C304.890228,253.839325 276.828247,238.045486 254.422668,241.146683 
	C250.656174,241.668015 248.777100,244.701660 249.655670,248.842758 
	C274.704681,251.002502 288.776154,262.047821 296.201782,286.233551 
	C303.342560,309.491394 302.836609,333.211365 296.113647,356.206543 
	C287.540497,385.530060 277.123077,414.313904 267.530029,443.340057 
	C265.078949,450.756317 262.738708,458.209229 260.347534,465.645264 
	C278.224396,437.471771 293.437500,408.079834 305.955627,376.466614 
M165.966812,158.354431 
	C146.957657,169.126663 134.851257,185.329147 130.035995,206.435379 
	C125.807617,224.969070 118.379768,241.689163 106.318069,256.366211 
	C101.775314,261.893982 97.227295,267.422150 92.866150,273.092010 
	C91.258926,275.181580 90.182785,277.679626 88.185638,281.181610 
	C91.641190,280.021240 93.577583,279.564972 95.345390,278.745209 
	C105.145317,274.200714 112.571747,266.755524 118.734581,258.203033 
	C126.798470,247.012375 134.301559,235.415253 141.965195,223.939087 
	C150.567581,211.057175 159.108444,198.153915 171.294830,188.202255 
	C192.239899,171.098083 219.386551,174.269104 233.042679,192.608658 
	C233.416077,193.110123 234.124329,193.362259 235.036774,193.971100 
	C226.058792,157.841446 190.672684,144.718399 165.966812,158.354431 
M398.103546,347.415833 
	C393.653168,342.938934 389.202759,338.462067 383.963165,333.191284 
	C382.792938,339.686371 381.865631,344.385101 381.159515,349.116913 
	C381.011780,350.106842 381.356720,351.523682 382.021393,352.227478 
	C389.850037,360.516998 392.819885,370.870117 394.042236,381.710297 
	C395.979614,398.890991 397.133881,416.159760 399.052002,433.342987 
	C400.536591,446.642120 403.534607,459.620392 411.799683,470.615814 
	C414.417694,474.098602 417.779236,477.022491 420.800507,480.202148 
	C421.152100,479.932373 421.503723,479.662567 421.855347,479.392792 
	C409.373749,454.504639 406.722900,428.009796 408.574646,400.729736 
	C409.013550,394.264008 409.109467,387.748322 408.897247,381.270905 
	C408.504028,369.269165 405.686157,357.930145 398.103546,347.415833 
M83.972198,420.365814 
	C80.505913,419.412170 77.039627,418.458557 72.991943,417.345001 
	C72.991943,420.963104 72.991913,423.769440 72.991951,426.575775 
	C72.992058,435.923035 75.954903,438.972626 86.193420,439.542267 
	C87.068947,435.992767 88.062889,432.343933 88.853439,428.651550 
	C89.651604,424.923645 88.484749,422.093567 83.972198,420.365814 
z"/>
<path fill="#FAD66F" opacity="1.000000" stroke="none" 
	d="
M147.970840,325.973999 
	C170.676865,305.821045 192.473785,285.369690 210.698181,261.259033 
	C218.177841,251.363541 217.996658,241.835159 214.218597,231.407852 
	C209.343292,217.952301 195.095749,212.859833 182.885818,220.341019 
	C178.100769,223.272888 173.787842,227.065155 169.570770,230.815170 
	C161.231964,238.230499 153.123245,245.904175 144.883148,253.431366 
	C143.653442,254.554718 142.227097,255.462769 140.175690,255.642593 
	C148.960342,242.614105 157.409027,229.340149 166.672867,216.661789 
	C171.233704,210.419876 176.706131,204.508957 182.804733,199.790833 
	C198.843170,187.382706 216.487396,192.029175 225.228470,210.281723 
	C230.806808,221.930084 232.501022,234.412415 232.943741,247.123520 
	C233.145355,252.911880 232.977997,258.713104 232.977997,264.998688 
	C238.288696,264.998688 243.235596,265.065277 248.180176,264.986328 
	C263.303741,264.744843 273.422089,271.979828 279.121033,285.718353 
	C284.946350,299.761444 286.337006,314.592804 284.371857,329.368683 
	C282.607056,342.637756 278.958313,355.664154 275.921692,368.746765 
	C275.512726,370.508789 274.110321,372.307922 272.686401,373.527771 
	C227.072723,412.602692 174.479980,435.173218 114.501648,440.180908 
	C110.712959,440.497253 106.917496,440.732452 103.394836,440.985992 
	C103.925804,434.661957 104.233902,428.714447 105.056236,422.838959 
	C105.255707,421.413757 106.938568,419.924011 108.296028,418.973206 
	C136.874283,398.955902 163.164566,376.179962 188.692688,352.479980 
	C189.166382,352.040192 189.570328,351.525269 190.291245,350.732666 
	C188.449310,348.736115 186.682587,346.812347 184.905914,344.897766 
	C183.214722,343.075348 181.513138,341.262573 179.694122,339.314911 
	C169.084030,348.756805 158.970383,358.401276 148.176147,367.211975 
	C131.935059,380.468628 115.194069,393.111816 98.730705,406.098328 
	C96.484779,407.869934 94.793839,407.841553 92.100586,406.682281 
	C86.682846,404.350250 80.909508,402.844299 74.351730,400.691864 
	C77.230927,396.242432 79.524597,391.087128 83.213997,387.286865 
	C96.303482,373.803955 109.716904,360.623840 123.313240,347.649261 
	C131.138428,340.181915 139.551697,333.330841 147.970840,325.973999 
M226.533600,292.030975 
	C221.393066,296.947479 216.252548,301.863983 211.593185,306.320282 
	C215.651154,310.754486 219.086975,314.508881 222.189072,317.898590 
	C230.162704,309.906006 237.966370,302.083771 245.869354,294.161957 
	C242.608200,290.884857 239.021820,287.280945 234.588669,282.826141 
	C232.023529,285.780853 229.528381,288.654938 226.533600,292.030975 
z"/>
<path fill="#FEE9A6" opacity="1.000000" stroke="none" 
	d="
M342.811951,223.138397 
	C319.732147,208.961365 295.711853,204.691925 270.212128,213.851364 
	C275.722137,204.165039 281.516418,194.733444 286.580231,184.924728 
	C298.185822,162.444397 299.704712,138.182373 298.806244,113.453392 
	C298.177490,96.147285 297.819702,78.803886 298.239807,61.498959 
	C298.443268,53.118446 299.979919,44.584118 302.233795,36.487091 
	C304.999084,26.552666 310.721008,23.752329 320.874634,25.365622 
	C333.460175,27.365314 343.482910,33.886749 351.915161,43.058548 
	C367.845764,60.386395 376.535339,81.436905 380.693542,104.090973 
	C389.529968,152.232574 386.014160,199.519073 368.145752,245.408813 
	C367.981110,245.831650 367.771851,246.237122 368.058350,245.608398 
	C359.864868,238.286789 351.493561,230.806259 342.811951,223.138397 
z"/>
<path fill="#FAD56F" opacity="1.000000" stroke="none" 
	d="
M354.757721,382.711670 
	C341.427490,415.862732 323.828400,445.781067 297.578003,469.973389 
	C288.982880,477.894592 279.537140,484.576721 267.200134,488.232300 
	C268.516510,485.855591 269.377228,484.192444 270.335388,482.587494 
	C292.963715,444.684540 313.545197,405.791321 327.375488,363.679108 
	C333.426758,345.253418 337.813873,326.491882 336.872559,306.885773 
	C336.237915,293.666534 334.004333,280.758728 328.504517,268.603577 
	C318.837494,247.238434 301.987823,234.588867 278.573853,228.387466 
	C287.317810,225.102798 295.369843,224.237442 303.543030,225.439041 
	C337.572937,230.442017 361.246368,254.717239 367.055267,289.909027 
	C372.233765,321.281464 366.237122,351.153625 355.570526,380.473999 
	C355.343414,381.098267 355.120880,381.724243 354.757721,382.711670 
z"/>
<path fill="#FCC428" opacity="1.000000" stroke="none" 
	d="
M420.898193,292.105835 
	C435.811920,308.246521 440.982483,327.885651 440.646271,348.542389 
	C440.316864,368.780151 437.830383,389.020782 435.561462,409.178101 
	C433.388672,428.481232 432.399139,447.671509 435.827576,466.901611 
	C436.027130,468.020966 435.986664,469.183167 435.738495,470.408783 
	C430.759979,461.163849 427.133575,451.315674 426.168274,440.958221 
	C424.951813,427.905731 425.105591,414.729156 424.533813,401.612000 
	C423.977356,388.846497 424.555939,375.852631 422.302399,363.380737 
	C418.668365,343.268982 406.198242,328.660522 388.722778,318.415863 
	C385.893036,316.756958 385.101624,315.018066 384.857819,311.812012 
	C383.903839,299.266113 382.438629,286.759064 381.122864,273.839508 
	C395.814667,275.263733 409.535095,280.554443 420.898193,292.105835 
z"/>
<path fill="#FBC428" opacity="1.000000" stroke="none" 
	d="
M305.825562,376.831635 
	C293.437500,408.079834 278.224396,437.471771 260.347534,465.645264 
	C262.738708,458.209229 265.078949,450.756317 267.530029,443.340057 
	C277.123077,414.313904 287.540497,385.530060 296.113647,356.206543 
	C302.836609,333.211365 303.342560,309.491394 296.201782,286.233551 
	C288.776154,262.047821 274.704681,251.002502 249.655670,248.842758 
	C248.777100,244.701660 250.656174,241.668015 254.422668,241.146683 
	C276.828247,238.045486 304.890228,253.839325 314.087036,275.219421 
	C322.403534,294.552917 323.030518,314.806580 318.396698,334.976654 
	C315.170807,349.018250 310.165833,362.651154 305.825562,376.831635 
z"/>
<path fill="#FBC428" opacity="1.000000" stroke="none" 
	d="
M166.306122,158.197876 
	C190.672684,144.718399 226.058792,157.841446 235.036774,193.971100 
	C234.124329,193.362259 233.416077,193.110123 233.042679,192.608658 
	C219.386551,174.269104 192.239899,171.098083 171.294830,188.202255 
	C159.108444,198.153915 150.567581,211.057175 141.965195,223.939087 
	C134.301559,235.415253 126.798470,247.012375 118.734581,258.203033 
	C112.571747,266.755524 105.145317,274.200714 95.345390,278.745209 
	C93.577583,279.564972 91.641190,280.021240 88.185638,281.181610 
	C90.182785,277.679626 91.258926,275.181580 92.866150,273.092010 
	C97.227295,267.422150 101.775314,261.893982 106.318069,256.366211 
	C118.379768,241.689163 125.807617,224.969070 130.035995,206.435379 
	C134.851257,185.329147 146.957657,169.126663 166.306122,158.197876 
z"/>
<path fill="#F6D26D" opacity="1.000000" stroke="none" 
	d="
M398.319763,347.701660 
	C405.686157,357.930145 408.504028,369.269165 408.897247,381.270905 
	C409.109467,387.748322 409.013550,394.264008 408.574646,400.729736 
	C406.722900,428.009796 409.373749,454.504639 421.855347,479.392792 
	C421.503723,479.662567 421.152100,479.932373 420.800507,480.202148 
	C417.779236,477.022491 414.417694,474.098602 411.799683,470.615814 
	C403.534607,459.620392 400.536591,446.642120 399.052002,433.342987 
	C397.133881,416.159760 395.979614,398.890991 394.042236,381.710297 
	C392.819885,370.870117 389.850037,360.516998 382.021393,352.227478 
	C381.356720,351.523682 381.011780,350.106842 381.159515,349.116913 
	C381.865631,344.385101 382.792938,339.686371 383.963165,333.191284 
	C389.202759,338.462067 393.653168,342.938934 398.319763,347.701660 
z"/>
<path fill="#CB9B74" opacity="1.000000" stroke="none" 
	d="
M84.315247,420.557343 
	C88.484749,422.093567 89.651604,424.923645 88.853439,428.651550 
	C88.062889,432.343933 87.068947,435.992767 86.193420,439.542267 
	C75.954903,438.972626 72.992058,435.923035 72.991951,426.575775 
	C72.991913,423.769440 72.991943,420.963104 72.991943,417.345001 
	C77.039627,418.458557 80.505913,419.412170 84.315247,420.557343 
z"/>
<path fill="#070603" opacity="1.000000" stroke="none" 
	d="
M226.783417,291.779999 
	C229.528381,288.654938 232.023529,285.780853 234.588669,282.826141 
	C239.021820,287.280945 242.608200,290.884857 245.869354,294.161957 
	C237.966370,302.083771 230.162704,309.906006 222.189072,317.898590 
	C219.086975,314.508881 215.651154,310.754486 211.593185,306.320282 
	C216.252548,301.863983 221.393066,296.947479 226.783417,291.779999 
z"/>
</svg>